# xmcd CD database file
#
# Track frame offsets:
#	150
#	18580
#	42138
#	60890
#	77958
#	95973
#	107955
#	123558
#	145380
#	166570
#	181023
#	198398
#
# Disc length: 2945 seconds
#
# Revision: 0
# Processed by: cddbd v1.5.1PL0 Copyright (c) Steve Scherf et al.
# Submitted via: CDex 1.51
#
DISCID=9e0b7f0c
DTITLE=LADYBUG - ラフレター
DYEAR=1900
DGENRE=Rock
TTITLE0=ツグミ
TTITLE1=ブロック
TTITLE2=FLASH
TTITLE3=老人と友
TTITLE4=月と太陽
TTITLE5=トムソーヤ島
TTITLE6=冬花火
TTITLE7=声
TTITLE8=水たまり
TTITLE9=世界で一番君が好き
TTITLE10=旋律日記
TTITLE11=雨
EXTD=
EXTT0=
EXTT1=
EXTT2=
EXTT3=
EXTT4=
EXTT5=
EXTT6=
EXTT7=
EXTT8=
EXTT9=
EXTT10=
EXTT11=
PLAYORDER=
